<mxfile host="app.diagrams.net" modified="2024-05-26T15:36:25.208Z" agent="Mozilla/5.0 (X11; Ubuntu; Linux x86_64; rv:126.0) Gecko/20100101 Firefox/126.0" etag="KoI-wezQuFZui4ul6LUg" version="22.1.18" type="device">
  <diagram name="Seite-1" id="lBnTUv3e-qcod_VpSBhr">
    <mxGraphModel dx="989" dy="650" grid="1" gridSize="10" guides="1" tooltips="1" connect="1" arrows="1" fold="1" page="1" pageScale="1" pageWidth="850" pageHeight="1100" math="0" shadow="0">
      <root>
        <mxCell id="0" />
        <mxCell id="1" parent="0" />
        <mxCell id="LWdSy3F0YsZ5PgyH7vhk-2" style="edgeStyle=orthogonalEdgeStyle;rounded=0;orthogonalLoop=1;jettySize=auto;html=1;exitX=1;exitY=0.5;exitDx=0;exitDy=0;" edge="1" parent="1" source="LWdSy3F0YsZ5PgyH7vhk-1" target="LWdSy3F0YsZ5PgyH7vhk-4">
          <mxGeometry relative="1" as="geometry">
            <mxPoint x="350" y="150" as="targetPoint" />
          </mxGeometry>
        </mxCell>
        <mxCell id="LWdSy3F0YsZ5PgyH7vhk-5" value="button pressed" style="edgeLabel;html=1;align=center;verticalAlign=middle;resizable=0;points=[];" vertex="1" connectable="0" parent="LWdSy3F0YsZ5PgyH7vhk-2">
          <mxGeometry x="0.0062" relative="1" as="geometry">
            <mxPoint y="-10" as="offset" />
          </mxGeometry>
        </mxCell>
        <mxCell id="LWdSy3F0YsZ5PgyH7vhk-1" value="OPEN" style="rounded=1;whiteSpace=wrap;html=1;" vertex="1" parent="1">
          <mxGeometry x="120" y="120" width="80" height="40" as="geometry" />
        </mxCell>
        <mxCell id="LWdSy3F0YsZ5PgyH7vhk-11" style="edgeStyle=orthogonalEdgeStyle;rounded=0;orthogonalLoop=1;jettySize=auto;html=1;exitX=1;exitY=0.5;exitDx=0;exitDy=0;" edge="1" parent="1" source="LWdSy3F0YsZ5PgyH7vhk-4" target="LWdSy3F0YsZ5PgyH7vhk-10">
          <mxGeometry relative="1" as="geometry" />
        </mxCell>
        <mxCell id="LWdSy3F0YsZ5PgyH7vhk-12" value="button released" style="edgeLabel;html=1;align=center;verticalAlign=middle;resizable=0;points=[];" vertex="1" connectable="0" parent="LWdSy3F0YsZ5PgyH7vhk-11">
          <mxGeometry x="0.0184" relative="1" as="geometry">
            <mxPoint y="-10" as="offset" />
          </mxGeometry>
        </mxCell>
        <mxCell id="LWdSy3F0YsZ5PgyH7vhk-4" value="SHAKING" style="rounded=1;whiteSpace=wrap;html=1;" vertex="1" parent="1">
          <mxGeometry x="290" y="120" width="80" height="40" as="geometry" />
        </mxCell>
        <mxCell id="LWdSy3F0YsZ5PgyH7vhk-14" style="edgeStyle=orthogonalEdgeStyle;rounded=0;orthogonalLoop=1;jettySize=auto;html=1;exitX=1;exitY=0.5;exitDx=0;exitDy=0;" edge="1" parent="1" source="LWdSy3F0YsZ5PgyH7vhk-10" target="LWdSy3F0YsZ5PgyH7vhk-13">
          <mxGeometry relative="1" as="geometry" />
        </mxCell>
        <mxCell id="LWdSy3F0YsZ5PgyH7vhk-15" value="t=1sec" style="edgeLabel;html=1;align=center;verticalAlign=middle;resizable=0;points=[];" vertex="1" connectable="0" parent="LWdSy3F0YsZ5PgyH7vhk-14">
          <mxGeometry x="-0.0199" y="2" relative="1" as="geometry">
            <mxPoint y="-8" as="offset" />
          </mxGeometry>
        </mxCell>
        <mxCell id="LWdSy3F0YsZ5PgyH7vhk-10" value="CLOSING" style="rounded=1;whiteSpace=wrap;html=1;" vertex="1" parent="1">
          <mxGeometry x="460" y="120" width="80" height="40" as="geometry" />
        </mxCell>
        <mxCell id="LWdSy3F0YsZ5PgyH7vhk-17" style="edgeStyle=orthogonalEdgeStyle;rounded=0;orthogonalLoop=1;jettySize=auto;html=1;exitX=0.5;exitY=1;exitDx=0;exitDy=0;entryX=0.5;entryY=0;entryDx=0;entryDy=0;" edge="1" parent="1" source="LWdSy3F0YsZ5PgyH7vhk-13" target="LWdSy3F0YsZ5PgyH7vhk-16">
          <mxGeometry relative="1" as="geometry" />
        </mxCell>
        <mxCell id="LWdSy3F0YsZ5PgyH7vhk-18" value="button pressed&lt;br&gt;for 2sec" style="edgeLabel;html=1;align=center;verticalAlign=middle;resizable=0;points=[];" vertex="1" connectable="0" parent="LWdSy3F0YsZ5PgyH7vhk-17">
          <mxGeometry x="-0.1954" y="-2" relative="1" as="geometry">
            <mxPoint x="42" y="3" as="offset" />
          </mxGeometry>
        </mxCell>
        <mxCell id="LWdSy3F0YsZ5PgyH7vhk-13" value="LOADED" style="rounded=1;whiteSpace=wrap;html=1;" vertex="1" parent="1">
          <mxGeometry x="630" y="120" width="80" height="40" as="geometry" />
        </mxCell>
        <mxCell id="LWdSy3F0YsZ5PgyH7vhk-22" style="edgeStyle=orthogonalEdgeStyle;rounded=0;orthogonalLoop=1;jettySize=auto;html=1;exitX=0;exitY=0.5;exitDx=0;exitDy=0;entryX=1;entryY=0.5;entryDx=0;entryDy=0;" edge="1" parent="1" source="LWdSy3F0YsZ5PgyH7vhk-16" target="LWdSy3F0YsZ5PgyH7vhk-19">
          <mxGeometry relative="1" as="geometry">
            <Array as="points">
              <mxPoint x="590" y="270" />
              <mxPoint x="590" y="230" />
            </Array>
          </mxGeometry>
        </mxCell>
        <mxCell id="LWdSy3F0YsZ5PgyH7vhk-24" value="button pressed for 2sec" style="edgeLabel;html=1;align=center;verticalAlign=middle;resizable=0;points=[];" vertex="1" connectable="0" parent="LWdSy3F0YsZ5PgyH7vhk-22">
          <mxGeometry x="0.4276" relative="1" as="geometry">
            <mxPoint x="10" y="-10" as="offset" />
          </mxGeometry>
        </mxCell>
        <mxCell id="LWdSy3F0YsZ5PgyH7vhk-23" style="edgeStyle=orthogonalEdgeStyle;rounded=0;orthogonalLoop=1;jettySize=auto;html=1;exitX=0;exitY=0.5;exitDx=0;exitDy=0;entryX=1;entryY=0.5;entryDx=0;entryDy=0;" edge="1" parent="1" source="LWdSy3F0YsZ5PgyH7vhk-16" target="LWdSy3F0YsZ5PgyH7vhk-20">
          <mxGeometry relative="1" as="geometry">
            <Array as="points">
              <mxPoint x="590" y="270" />
              <mxPoint x="590" y="310" />
            </Array>
          </mxGeometry>
        </mxCell>
        <mxCell id="LWdSy3F0YsZ5PgyH7vhk-25" value="acc dedected" style="edgeLabel;html=1;align=center;verticalAlign=middle;resizable=0;points=[];" vertex="1" connectable="0" parent="LWdSy3F0YsZ5PgyH7vhk-23">
          <mxGeometry x="0.5867" y="1" relative="1" as="geometry">
            <mxPoint x="13" y="9" as="offset" />
          </mxGeometry>
        </mxCell>
        <mxCell id="LWdSy3F0YsZ5PgyH7vhk-16" value="ARMED" style="rounded=1;whiteSpace=wrap;html=1;" vertex="1" parent="1">
          <mxGeometry x="630" y="250" width="80" height="40" as="geometry" />
        </mxCell>
        <mxCell id="LWdSy3F0YsZ5PgyH7vhk-26" style="edgeStyle=orthogonalEdgeStyle;rounded=0;orthogonalLoop=1;jettySize=auto;html=1;exitX=0;exitY=0.5;exitDx=0;exitDy=0;entryX=1;entryY=0.5;entryDx=0;entryDy=0;" edge="1" parent="1" source="LWdSy3F0YsZ5PgyH7vhk-19" target="LWdSy3F0YsZ5PgyH7vhk-21">
          <mxGeometry relative="1" as="geometry">
            <Array as="points">
              <mxPoint x="280" y="230" />
              <mxPoint x="280" y="270" />
            </Array>
          </mxGeometry>
        </mxCell>
        <mxCell id="LWdSy3F0YsZ5PgyH7vhk-28" value="button pressed" style="edgeLabel;html=1;align=center;verticalAlign=middle;resizable=0;points=[];" vertex="1" connectable="0" parent="LWdSy3F0YsZ5PgyH7vhk-26">
          <mxGeometry x="-0.5432" y="2" relative="1" as="geometry">
            <mxPoint y="-12" as="offset" />
          </mxGeometry>
        </mxCell>
        <mxCell id="LWdSy3F0YsZ5PgyH7vhk-19" value="UNARMED" style="rounded=1;whiteSpace=wrap;html=1;" vertex="1" parent="1">
          <mxGeometry x="380" y="210" width="80" height="40" as="geometry" />
        </mxCell>
        <mxCell id="LWdSy3F0YsZ5PgyH7vhk-27" style="edgeStyle=orthogonalEdgeStyle;rounded=0;orthogonalLoop=1;jettySize=auto;html=1;exitX=0;exitY=0.5;exitDx=0;exitDy=0;entryX=1;entryY=0.5;entryDx=0;entryDy=0;" edge="1" parent="1" source="LWdSy3F0YsZ5PgyH7vhk-20" target="LWdSy3F0YsZ5PgyH7vhk-21">
          <mxGeometry relative="1" as="geometry">
            <Array as="points">
              <mxPoint x="280" y="310" />
              <mxPoint x="280" y="270" />
            </Array>
          </mxGeometry>
        </mxCell>
        <mxCell id="LWdSy3F0YsZ5PgyH7vhk-29" value="t = 3...5sec" style="edgeLabel;html=1;align=center;verticalAlign=middle;resizable=0;points=[];" vertex="1" connectable="0" parent="LWdSy3F0YsZ5PgyH7vhk-27">
          <mxGeometry x="-0.6387" y="1" relative="1" as="geometry">
            <mxPoint x="-12" y="9" as="offset" />
          </mxGeometry>
        </mxCell>
        <mxCell id="LWdSy3F0YsZ5PgyH7vhk-20" value="FLYING" style="rounded=1;whiteSpace=wrap;html=1;" vertex="1" parent="1">
          <mxGeometry x="380" y="290" width="80" height="40" as="geometry" />
        </mxCell>
        <mxCell id="LWdSy3F0YsZ5PgyH7vhk-30" style="edgeStyle=orthogonalEdgeStyle;rounded=0;orthogonalLoop=1;jettySize=auto;html=1;exitX=0.5;exitY=0;exitDx=0;exitDy=0;entryX=0.5;entryY=1;entryDx=0;entryDy=0;" edge="1" parent="1" source="LWdSy3F0YsZ5PgyH7vhk-21" target="LWdSy3F0YsZ5PgyH7vhk-1">
          <mxGeometry relative="1" as="geometry" />
        </mxCell>
        <mxCell id="LWdSy3F0YsZ5PgyH7vhk-31" value="t =1sec" style="edgeLabel;html=1;align=center;verticalAlign=middle;resizable=0;points=[];" vertex="1" connectable="0" parent="LWdSy3F0YsZ5PgyH7vhk-30">
          <mxGeometry x="-0.0345" relative="1" as="geometry">
            <mxPoint x="-30" as="offset" />
          </mxGeometry>
        </mxCell>
        <mxCell id="LWdSy3F0YsZ5PgyH7vhk-21" value="OPENING" style="rounded=1;whiteSpace=wrap;html=1;" vertex="1" parent="1">
          <mxGeometry x="120" y="250" width="80" height="40" as="geometry" />
        </mxCell>
        <mxCell id="LWdSy3F0YsZ5PgyH7vhk-32" value="START" style="text;html=1;align=center;verticalAlign=middle;resizable=0;points=[];autosize=1;strokeColor=none;fillColor=none;" vertex="1" parent="1">
          <mxGeometry x="120" y="90" width="60" height="30" as="geometry" />
        </mxCell>
      </root>
    </mxGraphModel>
  </diagram>
</mxfile>
